<svg width="20" height="19" viewBox="0 0 20 19" fill="none" xmlns="http://www.w3.org/2000/svg">
<path d="M5.35901 10.2067L8.18901 7.37666L1.16901 0.366657C0.420351 1.11823 0 2.13583 0 3.19666C0 4.25748 0.420351 5.27509 1.16901 6.02666L5.35901 10.2067ZM12.139 8.39666C13.669 9.10666 15.819 8.60666 17.409 7.01666C19.319 5.10666 19.689 2.36666 18.219 0.896657C16.759 -0.563343 14.019 -0.203343 12.099 1.70666C10.509 3.29666 10.009 5.44666 10.719 6.97666L0.959014 16.7367L2.36901 18.1467L9.25901 11.2767L16.139 18.1567L17.549 16.7467L10.669 9.86666L12.139 8.39666Z" fill="#E6E6E6"/>
</svg>
